PathFileType	3	(X/Y/Z)	random_1__fused_aligned.trc
DataRate	CameraRate	NumFrames	NumMarkers	Units	OrigDataRate	OrigDataStartFrame	OrigNumFrames
100.0	100.0	17	19	mm	100.0	1569	1870
Frame#	Time	pelvis			neck			head			hip_left			hip_right			knee_left			knee_right			ankle_left			ankle_right			heel_left			heel_right			toe_left			toe_right			shoulder_left			shoulder_right			elbow_left			elbow_right			wrist_left			wrist_right			
		X1	Y1	Z1	X2	Y2	Z2	X3	Y3	Z3	X4	Y4	Z4	X5	Y5	Z5	X6	Y6	Z6	X7	Y7	Z7	X8	Y8	Z8	X9	Y9	Z9	X10	Y10	Z10	X11	Y11	Z11	X12	Y12	Z12	X13	Y13	Z13	X14	Y14	Z14	X15	Y15	Z15	X16	Y16	Z16	X17	Y17	Z17	X18	Y18	Z18	X19	Y19	Z19	
1569	15.68000	12.062269	926.329813	310.299139	35.158193	1500.923920	320.936879	144.080761	1622.517051	270.173869	-9.736692	921.504482	235.345587	33.861259	931.155148	385.252635	131.809192	534.317537	90.233653	134.237624	505.955008	367.919512	47.119561	133.231290	40.202019	17.468199	109.914216	369.531762	9.962714	87.791176	45.868919	-22.154604	63.959041	371.203512	220.287786	58.180325	-13.078279	197.659211	48.155493	344.925463	-65.070838	1488.305393	178.947429	40.458130	1430.742966	488.878378	-139.830165	1358.971942	-45.108423	75.378433	1251.226588	687.850982	-83.623648	1266.839459	-264.018960	198.528193	1129.741833	856.732284
1570	15.69000	11.745084	926.506333	309.636837	37.218995	1500.517894	319.904345	147.216972	1621.080090	269.020824	-10.102678	921.728692	234.698280	33.592895	931.283980	384.575320	131.790199	534.526093	89.809821	134.685178	506.207224	366.960436	47.659465	133.370663	39.665823	18.601866	110.002047	368.706950	10.526687	87.911337	45.277546	-20.960156	64.007956	370.422246	221.003713	58.280458	-13.317443	198.899155	48.234042	344.005949	-62.987914	1487.507972	177.132097	43.060772	1430.088605	488.331580	-138.064811	1350.967387	-41.943590	76.237435	1244.670451	682.342732	-81.951754	1250.888303	-257.739111	198.628239	1115.645810	845.631222
1571	15.70000	11.427900	926.682853	308.974534	39.279796	1500.111869	318.871812	150.353184	1619.643128	267.867780	-10.468664	921.952902	234.050973	33.324532	931.412812	383.898006	131.771206	534.734649	89.385989	135.132732	506.459439	366.001361	48.199369	133.510035	39.129628	19.735533	110.089878	367.882138	11.090661	88.031497	44.686173	-19.765707	64.056870	369.640981	221.719641	58.380591	-13.556607	200.139098	48.312592	343.086434	-60.904990	1486.710551	175.316764	45.663415	1429.434243	487.784783	-136.299456	1342.962832	-38.778756	77.096437	1238.114314	676.834481	-80.279860	1234.937146	-251.459262	198.728285	1101.549788	834.530160
1572	15.71000	11.110716	926.859373	308.312231	41.340598	1499.705844	317.839278	153.489395	1618.206166	266.714735	-10.834650	922.177111	233.403666	33.056169	931.541645	383.220692	131.752213	534.943206	88.962156	135.580287	506.711655	365.042286	48.739273	133.649408	38.593432	20.869200	110.177710	367.057326	11.654635	88.151657	44.094800	-18.571259	64.105784	368.859715	222.435568	58.480723	-13.795771	201.379041	48.391141	342.166920	-58.822065	1485.913130	173.501431	48.266057	1428.779882	487.237986	-134.534101	1334.958277	-35.613923	77.955439	1231.558177	671.326231	-78.607966	1218.985990	-245.179414	198.828331	1087.453765	823.429098
1573	15.72000	10.793532	927.035893	307.649928	43.401399	1499.299819	316.806744	156.625606	1616.769205	265.561690	-11.200637	922.401321	232.756359	32.787806	931.670477	382.543377	131.733220	535.151762	88.538324	136.027841	506.963870	364.083211	49.279177	133.788781	38.057237	22.002866	110.265541	366.232514	12.218609	88.271817	43.503427	-17.376810	64.154699	368.078449	223.151496	58.580856	-14.034934	202.618984	48.469691	341.247405	-56.739141	1485.115709	171.686099	50.868700	1428.125520	486.691188	-132.768747	1326.953723	-32.449090	78.814441	1225.002040	665.817981	-76.936072	1203.034833	-238.899565	198.928377	1073.357743	812.328036
1574	15.73000	10.476348	927.212413	306.987625	45.462201	1498.893794	315.774211	159.761817	1615.332243	264.408645	-11.566623	922.625531	232.109052	32.519442	931.799309	381.866063	131.714226	535.360318	88.114492	136.475395	507.216086	363.124136	49.819082	133.928153	37.521041	23.136533	110.353372	365.407702	12.782582	88.391977	42.912054	-16.182362	64.203613	367.297184	223.867424	58.680988	-14.274098	203.858927	48.548240	340.327891	-54.656217	1484.318288	169.870766	53.471342	1427.471159	486.144391	-131.003392	1318.949168	-29.284257	79.673443	1218.445903	660.309730	-75.264178	1187.083677	-232.619717	199.028422	1059.261720	801.226974
1575	15.74000	10.159164	927.388933	306.325322	47.523002	1498.487769	314.741677	162.898028	1613.895282	263.255600	-11.932609	922.849741	231.461745	32.251079	931.928142	381.188749	131.695233	535.568875	87.690660	136.922949	507.468301	362.165061	50.358986	134.067526	36.984846	24.270200	110.441203	364.582891	13.346556	88.512138	42.320681	-14.987913	64.252527	366.515918	224.583351	58.781121	-14.513262	205.098870	48.626790	339.408376	-52.573293	1483.520867	168.055433	56.073984	1426.816797	485.597594	-129.238038	1310.944613	-26.119423	80.532445	1211.889766	654.801480	-73.592284	1171.132520	-226.339868	199.128468	1045.165698	790.125912
1576	15.75000	9.841980	927.565453	305.663019	49.583804	1498.081743	313.709143	166.034239	1612.458320	262.102555	-12.298595	923.073950	230.814438	31.982716	932.056974	380.511434	131.676240	535.777431	87.266828	137.370504	507.720517	361.205985	50.898890	134.206898	36.448650	25.403867	110.529035	363.758079	13.910530	88.632298	41.729308	-13.793465	64.301442	365.734652	225.299279	58.881253	-14.752426	206.338814	48.705339	338.488862	-50.490369	1482.723446	166.240101	58.676627	1426.162436	485.050796	-127.472683	1302.940058	-22.954590	81.391447	1205.333629	649.293230	-71.920390	1155.181364	-220.060020	199.228514	1031.069675	779.024850
1577	15.76000	9.524796	927.741973	305.000716	51.644605	1497.675718	312.676610	169.170451	1611.021358	260.949510	-12.664581	923.298160	230.167131	31.714353	932.185807	379.834120	131.657247	535.985987	86.842995	137.818058	507.972732	360.246910	51.438794	134.346271	35.912455	26.537534	110.616866	362.933267	14.474503	88.752458	41.137936	-12.599016	64.350356	364.953387	226.015206	58.981386	-14.991590	207.578757	48.783889	337.569347	-48.407445	1481.926025	164.424768	61.279269	1425.508074	484.503999	-125.707328	1294.935503	-19.789757	82.250449	1198.777491	643.784979	-70.248496	1139.230207	-213.780171	199.328560	1016.973653	767.923788
1578	15.77000	9.028821	927.992444	304.653303	53.034167	1497.271643	311.910065	171.350586	1609.716824	260.061173	-13.298537	923.627681	229.872468	31.356363	932.357222	379.433979	130.878448	536.199748	86.715451	137.780779	508.207152	359.550087	51.696192	134.426743	35.592235	27.281530	110.673933	362.340859	14.824080	88.792008	40.829674	-11.780330	64.362650	364.386593	226.390294	59.113384	-15.373875	208.421481	48.884282	336.826028	-46.891503	1481.054780	162.995395	63.561636	1424.823562	484.015668	-122.040209	1288.925314	-16.136523	84.640936	1194.347169	637.240950	-64.936725	1128.009608	-204.750854	201.553863	1008.843838	752.935569
1579	15.78000	8.532846	928.242915	304.305890	54.423729	1496.867567	311.143521	173.530720	1608.412289	259.172836	-13.932492	923.957201	229.577806	30.998374	932.528638	379.033837	130.099649	536.413509	86.587906	137.743500	508.441571	358.853265	51.953589	134.507215	35.272015	28.025526	110.731001	361.748451	15.173658	88.831558	40.521412	-10.961645	64.374943	363.819800	226.765381	59.245382	-15.756161	209.264206	48.984675	336.082709	-45.375562	1480.183535	161.566022	65.844003	1424.139050	483.527338	-118.373090	1282.915124	-12.483288	87.031422	1189.916846	630.696921	-59.624955	1116.789009	-195.721537	203.779167	1000.714024	737.947350
1580	15.79000	8.036871	928.493385	303.958477	55.813291	1496.463491	310.376977	175.710855	1607.107755	258.284498	-14.566447	924.286722	229.283144	30.640384	932.700053	378.633696	129.320850	536.627269	86.460362	137.706222	508.675990	358.156442	52.210987	134.587687	34.951795	28.769521	110.788068	361.156043	15.523235	88.871108	40.213150	-10.142959	64.387237	363.253007	227.140468	59.377381	-16.138446	210.106930	49.085068	335.339390	-43.859620	1479.312290	160.136649	68.126370	1423.454538	483.039007	-114.705971	1276.904934	-8.830054	89.421908	1185.486524	624.152891	-54.313185	1105.568411	-186.692219	206.004470	992.584209	722.959131
1581	15.80000	7.540896	928.743856	303.611064	57.202853	1496.059416	309.610433	177.890990	1605.803220	257.396161	-15.200402	924.616243	228.988481	30.282394	932.871468	378.233555	128.542051	536.841030	86.332817	137.668943	508.910410	357.459619	52.468384	134.668159	34.631575	29.513517	110.845136	360.563635	15.872812	88.910658	39.904889	-9.324274	64.399531	362.686213	227.515555	59.509379	-16.520732	210.949655	49.185461	334.596071	-42.343679	1478.441045	158.707277	70.408737	1422.770026	482.550677	-111.038853	1270.894744	-5.176819	91.812395	1181.056201	617.608862	-49.001414	1094.347812	-177.662902	208.229774	984.454395	707.970912
1582	15.81000	7.044921	928.994327	303.263651	58.592415	1495.655340	308.843888	180.071125	1604.498686	256.507824	-15.834357	924.945764	228.693819	29.924405	933.042884	377.833414	127.763252	537.054791	86.205273	137.631664	509.144829	356.762796	52.725782	134.748631	34.311355	30.257513	110.902203	359.971228	16.222389	88.950208	39.596627	-8.505588	64.411824	362.119420	227.890643	59.641377	-16.903017	211.792379	49.285854	333.852752	-40.827738	1477.569800	157.277904	72.691103	1422.085514	482.062347	-107.371734	1264.884554	-1.523585	94.202881	1176.625879	611.064833	-43.689644	1083.127213	-168.633585	210.455077	976.324580	692.982692
1583	15.82000	6.548946	929.244798	302.916237	59.981977	1495.251264	308.077344	182.251260	1603.194152	255.619487	-16.468312	925.275284	228.399157	29.566415	933.214299	377.433273	126.984453	537.268552	86.077729	137.594385	509.379248	356.065974	52.983179	134.829103	33.991135	31.001509	110.959271	359.378820	16.571966	88.989758	39.288365	-7.686903	64.424118	361.552626	228.265730	59.773376	-17.285303	212.635104	49.386247	333.109433	-39.311796	1476.698556	155.848531	74.973470	1421.401003	481.574016	-103.704615	1258.874364	2.129650	96.593368	1172.195556	604.520803	-38.377874	1071.906614	-159.604267	212.680380	968.194765	677.994473
1584	15.83000	6.052971	929.495268	302.568824	61.371539	1494.847189	307.310800	184.431395	1601.889617	254.731149	-17.102267	925.604805	228.104494	29.208426	933.385715	377.033131	126.205654	537.482312	85.950184	137.557106	509.613668	355.369151	53.240577	134.909575	33.670915	31.745504	111.016338	358.786412	16.921544	89.029307	38.980104	-6.868217	64.436412	360.985833	228.640817	59.905374	-17.667588	213.477828	49.486640	332.366113	-37.795855	1475.827311	154.419158	77.255837	1420.716491	481.085686	-100.037496	1252.864174	5.782884	98.983854	1167.765234	597.976774	-33.066103	1060.686016	-150.574950	214.905684	960.064951	663.006254
1585	15.84000	5.556996	929.745739	302.221411	62.761101	1494.443113	306.544256	186.611530	1600.585083	253.842812	-17.736222	925.934326	227.809832	28.850436	933.557130	376.632990	125.426855	537.696073	85.822640	137.519827	509.848087	354.672328	53.497974	134.990047	33.350696	32.489500	111.073406	358.194004	17.271121	89.068857	38.671842	-6.049532	64.448705	360.419040	229.015904	60.037372	-18.049874	214.320553	49.587033	331.622794	-36.279913	1474.956066	152.989785	79.538204	1420.031979	480.597355	-96.370377	1246.853984	9.436119	101.374340	1163.334911	591.432745	-27.754333	1049.465417	-141.545633	217.130987	951.935136	648.018035
